# xmcd
#
# Track frame offsets:
#	150
#	17551
#	31952
#	47928
#	67054
#	87530
#	105681
#	122482
#	134333
#	151959
#
# Disc length: 2265 seconds
#
# Revision: 1
# Processed by: cddbd v1.5.2PL0 Copyright (c) Steve Scherf et al.
# Submitted via: audiograbber 1.83.01
#
DISCID=8408d70a
DTITLE=Garth Brooks - In Pieces
DYEAR=1993
DGENRE=Country
TTITLE0=Standing Outside The Fire
TTITLE1=The Night I Called The Old Man Out
TTITLE2=American Honky-Tonk Bar Association
TTITLE3=One Night A Day
TTITLE4=Ain't Going Down (Til The Sun Comes Up)
TTITLE5=Kickin' And Screamin'
TTITLE6=The Red Strokes
TTITLE7=Callin' Baton Rouge
TTITLE8=The Night Will Only Know
TTITLE9=The Cowboy Song
EXTD=
EXTT0=
EXTT1=
EXTT2=
EXTT3=
EXTT4=
EXTT5=
EXTT6=
EXTT7=
EXTT8=
EXTT9=
PLAYORDER=
